<?xml version="1.0" standalone="no"?><!DOCTYPE svg PUBLIC "-//W3C//DTD SVG 1.1//EN" "http://www.w3.org/Graphics/SVG/1.1/DTD/svg11.dtd"><svg t="1689921422407" class="icon" viewBox="0 0 1067 1024" version="1.1" xmlns="http://www.w3.org/2000/svg" p-id="3447" xmlns:xlink="http://www.w3.org/1999/xlink" width="208.3984375" height="200"><path d="M848.73860445 116.52039834H352.58730783a89.55799573 89.55799573 0 0 0-89.55799574 89.55799572v219.8648802a134.33699397 134.33699397 0 0 0-63.13838747 32.68866817l-8.50800957 6.7168497L123.76662828 516.84464008a16.56822936 16.56822936 0 0 0-7.16463946 12.0903293 26.8673988 26.8673988 0 0 0 3.13452995 15.22485927 19.25496877 19.25496877 0 0 0 27.31518858 3.58231974l75.67650654-58.21269765a89.55799573 89.55799573 0 0 1 81.94556572-25.52402869h118.66434495a22.38949874 22.38949874 0 0 1 21.94170895 13.43369939 30.44971853 30.44971853 0 0 1 0 20.59833887 21.04612865 21.04612865 0 0 1-21.94170895 13.4336994h-102.99169514a19.25496877 19.25496877 0 0 0 0 38.06214855H698.72896144a21.94170896 21.94170896 0 0 1 21.94170896 13.4336994 21.04612865 21.04612865 0 0 1 0 10.29916942v10.29916945a21.94170896 21.94170896 0 0 1-21.94170896 13.43369939H469.46049212a19.25496877 19.25496877 0 0 0 0 38.06214856h71.64639705a23.28507907 23.28507907 0 0 1 22.38949874 13.4336994 21.04612865 21.04612865 0 0 1 0 10.29916943v10.29916943a23.28507907 23.28507907 0 0 1-22.38949874 13.88148918H471.25165199a19.25496877 19.25496877 0 0 0-19.25496877 18.807179 19.70275932 19.70275932 0 0 0 19.25496877 18.80717978h61.34722762a25.07623893 25.07623893 0 0 1 22.38949873 13.4336994v20.59833887a22.38949874 22.38949874 0 0 1-22.38949873 15.22485926H471.25165199a18.807179 18.807179 0 1 0 0 37.61435801h25.5240287a24.62844916 24.62844916 0 0 1 21.94170897 13.88148917A20.1505491 20.1505491 0 0 1 519.61296999 832.98436494a64.48175681 64.48175681 0 0 1 0 10.29916944 21.94170896 21.94170896 0 0 1-21.94170897 13.43369939H257.20804195l-116.42539453-18.807179H135.85695759a20.1505491 20.1505491 0 0 0-18.80717901 15.67264981 20.59833887 20.59833887 0 0 0 13.43369941 23.73286884l120.45550404 29.55413821h246.28448922a38.06214856 38.06214856 0 0 0 13.88148917 0h339.87259445a89.55799573 89.55799573 0 0 0 89.55799573-89.55799572V206.07839406a89.55799573 89.55799573 0 0 0-91.79694615-89.55799572z m5.37348038 124.4856143l-160.756603 122.69445446a25.07623893 25.07623893 0 0 1-14.32927894 4.92568983 22.38949874 22.38949874 0 0 1-15.67264981-6.26905993l-64.48175681-61.79501738a20.1505491 20.1505491 0 0 1 0-30.00192876 22.83728929 22.83728929 0 0 1 31.79308862 0L680.81736276 318.0258893 825.90131594 206.07839406a23.28507907 23.28507907 0 0 1 31.79308864 3.13452996 21.49391919 21.49391919 0 0 1-3.58231975 31.79308862z" p-id="3448" fill="#e6e6e6"></path></svg>