<?xml version="1.0" standalone="no"?><!DOCTYPE svg PUBLIC "-//W3C//DTD SVG 1.1//EN" "http://www.w3.org/Graphics/SVG/1.1/DTD/svg11.dtd"><svg t="1689921512024" class="icon" viewBox="0 0 1024 1024" version="1.1" xmlns="http://www.w3.org/2000/svg" p-id="3848" xmlns:xlink="http://www.w3.org/1999/xlink" width="200" height="200"><path d="M512 8.533333c12.117333 0 26.325333 3.626667 42.709333 10.88l401.621334 182.570667a42.666667 42.666667 0 0 1 25.002666 38.826667v542.378666a42.666667 42.666667 0 0 1-25.002666 38.826667l-402.005334 182.741333c-18.602667 7.594667-32.725333 11.392-42.325333 11.392-9.6 0-23.722667-3.797333-42.24-11.349333l-402.090667-182.784a42.666667 42.666667 0 0 1-25.002666-38.826667V240.810667a42.666667 42.666667 0 0 1 25.002666-38.826667L469.248 19.413333C485.674667 12.16 499.882667 8.533333 512 8.533333z m0 85.504l-7.424 3.072L128 268.245333v487.466667l373.973333 170.069333 8.32 3.2 1.706667 0.554667 6.997333-2.432L896 755.626667V268.288l-378.752-172.117333-5.248-2.133334z m232.192 280.618667l17.664 38.826667a21.333333 21.333333 0 0 1-10.538667 28.245333l-196.693333 89.642667L554.666667 746.666667a21.333333 21.333333 0 0 1-21.333334 21.333333h-42.666666a21.333333 21.333333 0 0 1-21.333334-21.333333l-0.042666-214.357334-198.698667-90.581333a21.333333 21.333333 0 0 1-11.861333-24.618667l1.28-3.626666 17.706666-38.826667a21.333333 21.333333 0 0 1 24.618667-11.818667l3.626667 1.28 204.970666 93.354667 204.970667-93.354667a21.333333 21.333333 0 0 1 28.288 10.538667z" fill="#e6e6e6" opacity=".65" p-id="3849"></path></svg>