<?xml version="1.0" standalone="no"?><!DOCTYPE svg PUBLIC "-//W3C//DTD SVG 1.1//EN" "http://www.w3.org/Graphics/SVG/1.1/DTD/svg11.dtd"><svg t="1689921179209" class="icon" viewBox="0 0 1024 1024" version="1.1" xmlns="http://www.w3.org/2000/svg" p-id="2444" xmlns:xlink="http://www.w3.org/1999/xlink" width="200" height="200"><path d="M 856.747 344.747 c 10.24 -10.24 17.0667 -23.8933 17.0667 -40.96 s -6.82667 -30.72 -17.0667 -40.96 l -109.227 -109.227 c -13.6533 -10.24 -27.3067 -17.0667 -44.3733 -17.0667 s -30.72 6.82667 -40.96 17.0667 l -112.64 112.64 l 191.147 191.147 l 116.053 -112.64 Z M 215.04 597.333 c -10.24 13.6533 -20.48 27.3067 -27.3067 40.96 l -47.7867 170.667 c -3.41333 13.6533 0 30.72 10.24 40.96 c 10.24 10.24 27.3067 13.6533 40.96 10.24 l 174.08 -47.7867 c 17.0667 -3.41333 30.72 -13.6533 40.96 -27.3067 l 44.3733 -40.96 l -191.147 -187.733 l -44.3733 40.96 Z m 136.533 -430.08 c -23.8933 -23.8933 -61.44 -23.8933 -88.7467 0 L 160.427 273.067 c -23.8933 23.8933 -23.8933 61.44 0 85.3333 L 211.627 409.6 l 92.16 -92.16 c 3.41333 -6.82667 13.6533 -10.24 20.48 -10.24 c 10.24 0 17.0667 3.41333 23.8933 10.24 c 6.82667 6.82667 10.24 13.6533 10.24 23.8933 c 0 10.24 -3.41333 17.0667 -10.24 23.8933 l -92.16 88.7467 l 47.7867 47.7867 l 54.6133 -54.6133 c 6.82667 -6.82667 13.6533 -10.24 23.8933 -10.24 c 10.24 0 17.0667 3.41333 23.8933 10.24 c 6.82667 6.82667 10.24 13.6533 10.24 23.8933 c 0 10.24 -3.41333 17.0667 -10.24 23.8933 l -58.0267 54.6133 l 47.7867 47.7867 l 88.7467 -92.16 c 13.6533 -13.6533 34.1333 -13.6533 47.7867 0 c 13.6533 13.6533 13.6533 34.1333 0 47.7867 l -92.16 88.7467 l 47.7867 47.7867 l 54.6133 -54.6133 c 6.82667 -6.82667 20.48 -10.24 30.72 -10.24 c 10.24 3.41333 20.48 13.6533 23.8933 23.8933 c 3.41333 10.24 0 23.8933 -10.24 30.72 l -58.0267 51.2 l 47.7867 47.7867 l 92.16 -92.16 c 13.6533 -13.6533 34.1333 -13.6533 47.7867 0 c 13.6533 13.6533 13.6533 34.1333 0 47.7867 l -95.5733 88.7467 l 54.6133 54.6133 c 23.8933 23.8933 61.44 23.8933 88.7467 0 l 105.813 -105.813 c 23.8933 -23.8933 23.8933 -61.44 0 -85.3333 c -13.6533 -23.8933 -518.827 -518.827 -518.827 -518.827 Z m 0 0" p-id="2445" fill="#e6e6e6"></path></svg>