<?xml version="1.0" standalone="no"?><!DOCTYPE svg PUBLIC "-//W3C//DTD SVG 1.1//EN" "http://www.w3.org/Graphics/SVG/1.1/DTD/svg11.dtd"><svg t="1689921126496" class="icon" viewBox="0 0 1024 1024" version="1.1" xmlns="http://www.w3.org/2000/svg" p-id="2244" xmlns:xlink="http://www.w3.org/1999/xlink" width="200" height="200"><path d="M953.6 268.8c-6.4-6.4-12.8-12.8-25.6-12.8h-704-6.4L192 153.6c-6.4-12.8-19.2-25.6-32-25.6h-64c-19.2 0-32 12.8-32 32s12.8 32 32 32h38.4L256 678.4c6.4 12.8 19.2 25.6 32 25.6h38.4v64c0 6.4 0 12.8 6.4 19.2 6.4 6.4 12.8 6.4 19.2 6.4h12.8c-25.6 12.8-38.4 44.8-38.4 70.4 0 51.2 38.4 89.6 89.6 89.6s89.6-38.4 89.6-89.6c0-32-12.8-57.6-38.4-70.4h204.8c-25.6 12.8-44.8 44.8-44.8 76.8 0 25.6 6.4 44.8 25.6 64s38.4 25.6 64 25.6c51.2 0 89.6-38.4 89.6-89.6 0-32-19.2-57.6-44.8-76.8h6.4c12.8 0 25.6-12.8 25.6-25.6s-12.8-25.6-25.6-25.6H377.6V704h422.4c12.8 0 25.6-6.4 32-19.2l128-384c0-12.8 0-25.6-6.4-32z m-537.6 633.6c-19.2 0-38.4-19.2-38.4-38.4s19.2-38.4 38.4-38.4 38.4 19.2 38.4 38.4-19.2 38.4-38.4 38.4z m300.8 6.4c-12.8 0-19.2-6.4-25.6-12.8-6.4-6.4-12.8-19.2-12.8-25.6 0-19.2 19.2-38.4 38.4-38.4s38.4 19.2 38.4 38.4-19.2 38.4-38.4 38.4z m57.6-268.8H313.6L256 403.2h601.6L774.4 640z m96-281.6H243.2L230.4 320h652.8l-12.8 38.4z" fill="#e6e6e6" p-id="2245"></path></svg>