<?xml version="1.0" standalone="no"?><!DOCTYPE svg PUBLIC "-//W3C//DTD SVG 1.1//EN" "http://www.w3.org/Graphics/SVG/1.1/DTD/svg11.dtd"><svg t="1689921337602" class="icon" viewBox="0 0 1024 1024" version="1.1" xmlns="http://www.w3.org/2000/svg" p-id="3046" xmlns:xlink="http://www.w3.org/1999/xlink" width="200" height="200"><path d="M778.765265 1011.73493V841.490431h134.515818V563.126676H572.125504v412.879573h152.513475v44.527536l-46.393959 0.133316-0.399948-0.133316H527.597969V518.599141h430.21065v343.022002c0 1.199844-0.133316 2.666319-0.133316 4.132795v6.932431l-0.533264 1.599792-0.399948 1.066527-1.33316 10.798594h-2.533003c-23.730243 64.2583-76.390053 114.118474-141.714881 133.982555l-1.199844 0.399948s-4.666059 0.133316-6.132535 0.133316c-2.533004 0-4.932691 0-7.065747-0.133316h-6.93243l-10.26533 3.466215-0.799896-12.26507z m44.527535-44.527535c35.328733-17.197761 64.124984-45.860695 81.322745-81.322745h-81.322745v81.322745zM617.31962 760.434318V715.906783h250.767348v44.527535H617.31962z m0-80.656164v-44.527536h250.767348v44.527536H617.31962z" fill="#e6e6e6" opacity=".8" p-id="3047"></path><path d="M98.853795 1008.801979C80.856139 1008.801979 66.191381 994.270538 66.191381 976.406197V886.55123c0-179.576618 108.785835-338.755891 277.297227-405.68051l20.397344-8.132274-17.331076-13.464914c-63.191772-49.326911-99.320401-123.050644-99.320401-202.107017C247.234475 115.318318 363.352688 0 506.134097 0s258.899622 115.318318 258.899623 257.166515c0 57.992449-19.997396 114.651738-56.392658 159.845853h-95.187605c53.726338-35.462049 86.255435-94.920974 86.255435-159.845853 0-106.119516-86.788699-192.374951-193.574795-192.374951s-193.574795 86.255435-193.574795 192.374951c0 71.324046 39.194896 135.848978 102.653301 169.577919v98.787137C247.901055 566.992839 131.516209 714.706939 131.516209 886.417914V943.877099h279.963546v64.791564H98.853795v0.133316z" fill="#e6e6e6" opacity=".8" p-id="3048"></path></svg>