<?xml version="1.0" standalone="no"?><!DOCTYPE svg PUBLIC "-//W3C//DTD SVG 1.1//EN" "http://www.w3.org/Graphics/SVG/1.1/DTD/svg11.dtd"><svg t="1690334330364" class="icon" viewBox="0 0 1024 1024" version="1.1" xmlns="http://www.w3.org/2000/svg" p-id="2326" width="64" height="64" xmlns:xlink="http://www.w3.org/1999/xlink"><path d="M352 928h-256A32 32 0 0 1 64 896V128a32 32 0 0 1 32-32h256A32 32 0 0 1 384 128v768a32 32 0 0 1-32 32z m-224-64h192v-704H128zM928 928h-256a32 32 0 0 1 0-64H896v-320h-224A32 32 0 0 1 640 512V128a32 32 0 0 1 32-32h256a32 32 0 0 1 0 64H704v320h224a32 32 0 0 1 32 32v384a32 32 0 0 1-32 32z" fill="#2c2c2c" p-id="2327"></path><path d="M512 896m-64 0a64 64 0 1 0 128 0 64 64 0 1 0-128 0Z" fill="#2c2c2c" p-id="2328"></path></svg>