<svg xmlns="http://www.w3.org/2000/svg" width="16" height="16" viewBox="0 0 16 16"><defs><style>.a{fill:none;}.b,.c{stroke:none;}.c{fill:#999;}</style></defs><g class="a"><path class="b" d="M7.091,1.979a1,1,0,0,1,1.818,0l1.3,2.839a1,1,0,0,0,.767.573l3.052.438A1,1,0,0,1,14.6,7.523l-2.288,2.3a1,1,0,0,0-.276.874l.553,3.224a1,1,0,0,1-1.477,1.04l-2.62-1.479a1,1,0,0,0-.983,0l-2.62,1.479a1,1,0,0,1-1.477-1.04L3.965,10.7a1,1,0,0,0-.276-.874L1.4,7.523a1,1,0,0,1,.568-1.694l3.052-.438a1,1,0,0,0,.767-.573Z"/><path class="c" d="M 7.999999523162842 2.39625358581543 L 6.696139335632324 5.235553741455078 C 6.411399841308594 5.855623245239258 5.838179588317871 6.283703804016113 5.162769317626953 6.380643844604492 L 2.111079216003418 6.818683624267578 L 4.398659706115723 9.123163223266602 C 4.853299140930176 9.581143379211426 5.059579849243164 10.23430347442627 4.950459480285645 10.8703727722168 L 4.397269248962402 14.09452342987061 C 4.397269248962402 14.09452724456787 4.397268295288086 14.09453105926514 4.39726734161377 14.09453392028809 C 4.397268295288086 14.09453392028809 4.397269248962402 14.09453392028809 4.397269248962402 14.09453392028809 L 7.016899108886719 12.61597347259521 C 7.316259384155273 12.44699287414551 7.656209945678711 12.35767364501953 7.999999523162842 12.35767364501953 C 8.343769073486328 12.35767364501953 8.683710098266602 12.44698333740234 8.983058929443359 12.61595344543457 L 11.60269927978516 14.09452247619629 C 11.60270881652832 14.09451675415039 11.60271644592285 14.09451103210449 11.60272979736328 14.09453392028809 L 11.04953956604004 10.87034320831299 C 10.94042015075684 10.23430347442627 11.14669990539551 9.581143379211426 11.60133934020996 9.123163223266602 L 13.88890933990479 6.818683624267578 C 13.8889102935791 6.818682670593262 13.8889102935791 6.818682670593262 13.88891983032227 6.818683624267578 L 10.83722972869873 6.380643844604492 C 10.16181945800781 6.283703804016113 9.588600158691406 5.855623245239258 9.303869247436523 5.235573768615723 L 7.999999523162842 2.39625358581543 M 7.999999523162842 1.39625072479248 C 8.36518669128418 1.39625072479248 8.730374336242676 1.590478897094727 8.908760070800781 1.978933334350586 L 10.2126293182373 4.818253517150879 C 10.3543701171875 5.126923561096191 10.64309883117676 5.342533111572266 10.97930908203125 5.390793800354004 L 14.03099918365479 5.82883358001709 C 14.8447093963623 5.945623397827148 15.17774963378906 6.939773559570312 14.59861946105957 7.523183822631836 L 12.31103897094727 9.827663421630859 C 12.08325004577637 10.05713367462158 11.98046970367432 10.38258361816406 12.0351390838623 10.70126342773438 L 12.58832931518555 13.92542362213135 C 12.7308292388916 14.75599384307861 11.84509086608887 15.37960338592529 11.11119937896729 14.96539306640625 L 8.49152946472168 13.48681354522705 C 8.186459541320801 13.31462287902832 7.81353759765625 13.31462383270264 7.508469581604004 13.48681354522705 L 4.888799667358398 14.96539306640625 C 4.154916763305664 15.37960433959961 3.269169807434082 14.7559928894043 3.411669731140137 13.92542362213135 L 3.964859962463379 10.70126342773438 C 4.019529342651367 10.38258361816406 3.916749954223633 10.05713367462158 3.688959121704102 9.827663421630859 L 1.401379585266113 7.523183822631836 C 0.8222494125366211 6.939773559570312 1.155289649963379 5.945623397827148 1.968999862670898 5.82883358001709 L 5.020689964294434 5.390793800354004 C 5.356899261474609 5.342533111572266 5.6456298828125 5.126923561096191 5.787369728088379 4.818253517150879 L 7.091239929199219 1.978933334350586 C 7.269624710083008 1.590478897094727 7.634812355041504 1.39625072479248 7.999999523162842 1.39625072479248 Z"/></g></svg>